<?xml version="1.0" encoding="UTF-8" standalone="no"?>
<!DOCTYPE svg PUBLIC "-//W3C//DTD SVG 1.1//EN" "http://www.w3.org/Graphics/SVG/1.1/DTD/svg11.dtd">
<svg width="100%" height="100%" viewBox="0 0 3840 1642" version="1.1" xmlns="http://www.w3.org/2000/svg" xmlns:xlink="http://www.w3.org/1999/xlink" xml:space="preserve" xmlns:serif="http://www.serif.com/" style="fill-rule:evenodd;clip-rule:evenodd;stroke-linejoin:round;stroke-miterlimit:2;">
    <g id="Simplified" transform="matrix(2.44111,0,0,2.44111,6.47649,-1285.58)">
        <g transform="matrix(0.612159,0,0,0.612159,-406.717,174.522)">
            <path d="M1028.2,1164.72L1028.2,1377.79L903.6,1377.79L903.6,773.057L1139.51,773.057C1184.92,773.057 1224.86,781.363 1259.34,797.977C1293.81,814.59 1320.32,838.196 1338.88,868.792C1357.43,899.389 1366.7,934.208 1366.7,973.25C1366.7,1032.51 1346.42,1079.23 1305.86,1113.43C1265.29,1147.62 1209.15,1164.72 1137.43,1164.72L1028.2,1164.72ZM1028.2,1063.79L1139.51,1063.79C1172.46,1063.79 1197.59,1056.04 1214.9,1040.53C1232.2,1025.03 1240.86,1002.88 1240.86,974.08C1240.86,944.453 1232.13,920.502 1214.69,902.227C1197.24,883.952 1173.15,874.538 1142.42,873.984L1028.2,873.984L1028.2,1063.79Z" style="fill-rule:nonzero;"/>
            <path d="M1618.4,1207.92L1701.47,928.393L1830.22,928.393L1649.55,1447.57L1639.58,1471.24C1612.72,1529.94 1568.42,1559.29 1506.67,1559.29C1489.23,1559.29 1471.51,1556.66 1453.51,1551.4L1453.51,1460.44L1471.78,1460.86C1494.49,1460.86 1511.45,1457.4 1522.66,1450.47C1533.88,1443.55 1542.67,1432.06 1549.04,1416L1563.16,1379.04L1405.74,928.393L1534.91,928.393L1618.4,1207.92Z" style="fill-rule:nonzero;"/>
            <g transform="matrix(1,0,0,1,645.537,1.40277e-13)">
                <path d="M2340.67,873.984L2155.43,873.984L2155.43,1377.79L2030.83,1377.79L2030.83,873.984L1848.08,873.984L1848.08,773.057L2340.67,773.057L2340.67,873.984Z" style="fill-rule:nonzero;"/>
            </g>
        </g>
        <g id="Logo-Prot-1.2" serif:id="Logo Prot 1.2" transform="matrix(0.443605,0,0,0.443605,444.327,161.157)">
            <g id="rot-3" serif:id="rot 3">
                <path d="M1327.67,1751.46L921.796,1853.13C921.796,1853.13 888.168,1637.77 888.168,1637.77L882.046,1629.55L732.342,1436.2C732.342,1436.2 897.019,1168.75 897.019,1168.75C897.019,1168.75 1118.97,1152.39 1118.97,1152.39C1118.97,1152.39 1277.22,1169.93 1277.22,1169.93C1277.22,1169.93 1256.9,1313.23 1256.9,1313.23C1255.21,1324.05 1262.62,1334.2 1273.45,1335.9C1284.27,1337.59 1294.43,1330.18 1296.12,1319.36L1327.97,1131.15L1305.24,1128.28L1120.28,1102.12L1117.98,1102.25L863.914,1113.3L856.01,1125.68L648.496,1439.95L662.728,1459.07C662.728,1459.07 782.71,1626.73 812.11,1667.81C812.11,1667.81 846.098,1964.51 846.098,1964.51L894.502,1953.71L1352.76,1863.91C1383.79,1856.99 1403.36,1826.18 1396.44,1795.15C1389.52,1764.12 1358.7,1744.54 1327.67,1751.46Z" style="fill:rgb(67,0,3);"/>
                <g id="Balls" transform="matrix(0.923455,0,0,0.923455,-1015.35,850.911)">
                    <path d="M2057.64,1064.11C2100.91,1064.11 2136.04,1099.24 2136.04,1142.5C2136.04,1185.77 2100.91,1220.89 2057.64,1220.89C2014.38,1220.89 1979.25,1185.77 1979.25,1142.5C1979.25,1099.24 2014.38,1064.11 2057.64,1064.11ZM2022.19,814.106C2055.62,814.106 2082.75,841.243 2082.75,874.668C2082.75,908.093 2055.62,935.231 2022.19,935.231C1988.77,935.231 1961.63,908.093 1961.63,874.668C1961.63,841.243 1988.77,814.106 2022.19,814.106ZM1856.79,578.357C1888.82,578.357 1914.82,604.353 1914.82,636.372C1914.82,668.391 1888.82,694.386 1856.79,694.386C1824.76,694.386 1798.76,668.391 1798.76,636.372C1798.76,604.353 1824.76,578.357 1856.79,578.357ZM2481.26,476.618C2496.59,476.618 2509.04,489.066 2509.04,504.4C2509.04,519.733 2496.59,532.182 2481.26,532.182C2465.92,532.182 2453.47,519.733 2453.47,504.4C2453.47,489.066 2465.92,476.618 2481.26,476.618ZM2054.21,265.448C2080.03,265.448 2100.98,286.412 2100.98,312.233C2100.98,338.055 2080.03,359.019 2054.21,359.019C2028.4,359.019 2007.44,338.055 2007.44,312.233C2007.44,286.412 2028.4,265.448 2054.21,265.448ZM2514.84,285.508C2533.63,285.508 2548.89,300.669 2548.89,319.344C2548.89,338.019 2533.63,353.181 2514.84,353.181C2496.04,353.181 2480.78,338.019 2480.78,319.344C2480.78,300.669 2496.04,285.508 2514.84,285.508ZM2303.5,262.509C2325.62,262.509 2343.59,280.472 2343.59,302.598C2343.59,324.723 2325.62,342.687 2303.5,342.687C2281.37,342.687 2263.41,324.723 2263.41,302.598C2263.41,280.472 2281.37,262.509 2303.5,262.509Z" style="fill:rgb(67,0,3);"/>
                </g>
            </g>
            <g id="rot-2" serif:id="rot 2">
                <path d="M1300.84,1756.25L1227.1,1857.3C1227.1,1857.3 837.874,1787.51 837.874,1787.51C837.874,1787.51 784.282,1389.53 771.449,1294.23C839.65,1256.36 1072.38,1127.17 1132.13,1094C1132.13,1094 1312.2,1248.43 1312.2,1248.43C1320.4,1255.68 1332.95,1254.91 1340.21,1246.71C1347.46,1238.51 1346.69,1225.95 1338.49,1218.7L1138.4,1036.63L1123.88,1044.39L704.876,1260.08L707.283,1280.98L763.089,1857.51L792.468,1863.56L1272.32,1974.54L1292.66,1948.21L1392.01,1826.7C1411.45,1801.55 1406.81,1765.34 1381.65,1745.9C1356.49,1726.46 1320.29,1731.1 1300.84,1756.25Z" style="fill:rgb(133,0,0);"/>
                <g id="Balls1" serif:id="Balls" transform="matrix(0.923455,0,0,0.923455,-1015.35,850.911)">
                    <path d="M2448.28,1055.52C2496.51,1055.52 2535.67,1094.68 2535.67,1142.91C2535.67,1191.15 2496.51,1230.31 2448.28,1230.31C2400.05,1230.31 2360.89,1191.15 2360.89,1142.91C2360.89,1094.68 2400.05,1055.52 2448.28,1055.52ZM1965.58,981.943C2002.87,981.943 2033.14,1012.38 2033.14,1049.88C2033.14,1087.38 2002.87,1117.82 1965.58,1117.82C1928.29,1117.82 1898.02,1087.38 1898.02,1049.88C1898.02,1012.38 1928.29,981.943 1965.58,981.943ZM1908.79,411.029C1941.63,411.029 1968.3,437.841 1968.3,470.865C1968.3,503.89 1941.63,530.702 1908.79,530.702C1875.95,530.702 1849.28,503.89 1849.28,470.865C1849.28,437.841 1875.95,411.029 1908.79,411.029ZM2537.63,388.628C2553.2,388.628 2565.84,401.269 2565.84,416.84C2565.84,432.41 2553.2,445.052 2537.63,445.052C2522.06,445.052 2509.42,432.41 2509.42,416.84C2509.42,401.269 2522.06,388.628 2537.63,388.628ZM2328.75,197.736C2354.77,197.736 2375.89,218.07 2375.89,243.116C2375.89,268.162 2354.77,288.496 2328.75,288.496C2302.74,288.496 2281.62,268.162 2281.62,243.116C2281.62,218.07 2302.74,197.736 2328.75,197.736Z" style="fill:rgb(133,0,0);"/>
                </g>
            </g>
            <g id="rot-1" serif:id="rot 1">
                <g transform="matrix(0.923455,0,0,0.923455,-1015.35,850.911)">
                    <path d="M2634.66,1075.63L2250.69,1254.73L1833.85,893.328L1814.78,877.385L1910.41,479.767L2114.77,239.109L2124.36,227.766L2456.1,251.293L2473.01,252.242L2548.73,491.42C2552.46,502.677 2546.35,514.848 2535.1,518.581C2523.84,522.314 2511.67,516.206 2507.93,504.948C2507.93,504.948 2436.75,300.36 2436.75,300.36C2436.75,300.36 2151.17,288.753 2151.17,288.753C2151.17,288.753 1975.06,510.655 1975.06,510.655C1975.06,510.655 1905.82,844.712 1905.82,844.712C1968.96,895.028 2176.22,1049.05 2250.69,1108.4L2456.51,1004.75L2456.51,844.931L2260.72,844.931L2260.72,742.803C2260.72,742.803 2253.5,657.592 2462.39,657.592C2626.76,657.592 2631.64,733.648 2631.64,749.677L2634.66,1075.63ZM2346.81,722.193C2367.1,722.193 2383.57,738.665 2383.57,758.953C2383.57,779.242 2367.1,795.713 2346.81,795.713C2326.52,795.713 2310.05,779.242 2310.05,758.953C2310.05,738.665 2326.52,722.193 2346.81,722.193Z" style="fill:rgb(196,7,0);"/>
                </g>
                <g id="Balls2" serif:id="Balls" transform="matrix(0.923455,0,0,0.923455,-1015.35,850.911)">
                    <path d="M2250.07,1097.53C2294.83,1097.53 2331.17,1133.87 2331.17,1178.63C2331.17,1223.39 2294.83,1259.73 2250.07,1259.73C2205.31,1259.73 2168.97,1223.39 2168.97,1178.63C2168.97,1133.87 2205.31,1097.53 2250.07,1097.53ZM2540.64,926.812C2599.72,926.812 2647.68,974.775 2647.68,1033.85C2647.68,1092.93 2599.72,1140.89 2540.64,1140.89C2481.56,1140.89 2433.6,1092.93 2433.6,1033.85C2433.6,974.775 2481.56,926.812 2540.64,926.812ZM1870.75,788.153C1910.96,788.153 1943.61,820.803 1943.61,861.019C1943.61,901.235 1910.96,933.885 1870.75,933.885C1830.53,933.885 1797.88,901.235 1797.88,861.019C1797.88,820.803 1830.53,788.153 1870.75,788.153ZM1947.06,437.37C1978.04,437.37 2003.2,462.526 2003.2,493.513C2003.2,524.499 1978.04,549.656 1947.06,549.656C1916.07,549.656 1890.91,524.499 1890.91,493.513C1890.91,462.526 1916.07,437.37 1947.06,437.37ZM2526.8,469.369C2542.14,469.369 2554.6,481.835 2554.6,497.191C2554.6,512.546 2542.14,525.013 2526.8,525.013C2511.46,525.013 2499,512.546 2499,497.191C2499,481.835 2511.46,469.369 2526.8,469.369ZM2453.19,239.208C2475.91,239.208 2494.36,257.649 2494.36,280.363C2494.36,303.077 2475.91,321.518 2453.19,321.518C2430.47,321.518 2412.02,303.077 2412.02,280.363C2412.02,257.649 2430.47,239.208 2453.19,239.208ZM2144.29,215.701C2168.53,215.701 2188.21,235.383 2188.21,259.625C2188.21,283.867 2168.53,303.548 2144.29,303.548C2120.05,303.548 2100.37,283.867 2100.37,259.625C2100.37,235.383 2120.05,215.701 2144.29,215.701Z" style="fill:rgb(196,7,0);"/>
                </g>
            </g>
        </g>
    </g>
</svg>
